HIERARCHY
ROOT Hips
{
    OFFSET 0.000000 0.000000 0.000000
    CHANNELS 6 Xposition Yposition Zposition Zrotation Xrotation Yrotation
    JOINT Spine
    {
        OFFSET -0.000000 7.246840 0.000000
        CHANNELS 3 Zrotation Xrotation Yrotation
        JOINT Spine1
        {
            OFFSET -0.000000 20.289354 0.000000
            CHANNELS 3 Zrotation Xrotation Yrotation
            JOINT Neck
            {
                OFFSET -0.000000 20.206032 1.836912
                CHANNELS 3 Zrotation Xrotation Yrotation
                JOINT Head
                {
                    OFFSET -0.000000 12.372654 -1.767522
                    CHANNELS 3 Zrotation Xrotation Yrotation
                    End Site
                    {
                        OFFSET -0.000000 22.094025 0.000000
                    }
                }
            }
            JOINT LeftShoulder
            {
                OFFSET 3.465871 17.201674 -0.568930
                CHANNELS 3 Zrotation Xrotation Yrotation
                JOINT LeftArm
                {
                    OFFSET 14.070313 0.000000 0.000000
                    CHANNELS 3 Zrotation Xrotation Yrotation
                    JOINT LeftForeArm
                    {
                        OFFSET 26.549477 0.000000 0.000000
                        CHANNELS 3 Zrotation Xrotation Yrotation
                        JOINT LeftHand
                        {
                            OFFSET 18.880413 0.000000 0.000000
                            CHANNELS 3 Zrotation Xrotation Yrotation
                            End Site
                            {
                                OFFSET 13.256415 0.000000 0.000000
                            }
                        }
                    }
                }
            }
            JOINT RightShoulder
            {
                OFFSET -3.526370 17.201674 -0.568930
                CHANNELS 3 Zrotation Xrotation Yrotation
                JOINT RightArm
                {
                    OFFSET -14.070313 0.000000 0.000000
                    CHANNELS 3 Zrotation Xrotation Yrotation
                    JOINT RightForeArm
                    {
                        OFFSET -26.549477 0.000000 0.000000
                        CHANNELS 3 Zrotation Xrotation Yrotation
                        JOINT RightHand
                        {
                            OFFSET -18.880413 0.000000 0.000000
                            CHANNELS 3 Zrotation Xrotation Yrotation
                            End Site
                            {
                                OFFSET -13.256415 0.000000 0.000000
                            }
                        }
                    }
                }
            }
        }
    }
    JOINT LeftUpLeg
    {
        OFFSET 8.837609 0.000000 0.000000
        CHANNELS 3 Zrotation Xrotation Yrotation
        JOINT LeftLeg
        {
            OFFSET -0.000000 -41.345005 0.000000
            CHANNELS 3 Zrotation Xrotation Yrotation
            JOINT LeftFoot
            {
                OFFSET -0.000000 -35.500874 0.000000
                CHANNELS 3 Zrotation Xrotation Yrotation
                JOINT LeftToeBase
                {
                    OFFSET -0.000000 -5.744446 13.256415
                    CHANNELS 3 Zrotation Xrotation Yrotation
                    End Site
                    {
                        OFFSET -0.000000 0.000000 3.535044
                    }
                }
            }
        }
    }
    JOINT RightUpLeg
    {
        OFFSET -8.837609 0.000000 0.000000
        CHANNELS 3 Zrotation Xrotation Yrotation
        JOINT RightLeg
        {
            OFFSET -0.000000 -41.345005 0.000000
            CHANNELS 3 Zrotation Xrotation Yrotation
            JOINT RightFoot
            {
                OFFSET -0.000000 -35.500874 0.000000
                CHANNELS 3 Zrotation Xrotation Yrotation
                JOINT RightToeBase
                {
                    OFFSET -0.000000 -5.744446 13.256415
                    CHANNELS 3 Zrotation Xrotation Yrotation
                    End Site
                    {
                        OFFSET -0.000000 0.000000 3.535044
                    }
                }
            }
        }
    }
}
MOTION
Frames:    4
Frame Time:    0.010000
6.817161    82.490837    -3.196692    4.389767    3.899921    -24.316177    -3.209564    -10.408493    -4.628257    3.080046    4.912136    -4.467992    1.495420    27.309237    -3.272971    0.225904    -31.187391    -3.148719    6.711924    4.440593    11.179448    -85.536026    45.117020    -2.489655    4.591964    -18.244843    -33.002510    -43.149731    -14.523801    -6.360554    -6.574469    5.846809    6.391765    72.874603    50.764709    3.787005    -19.296700    -24.961042    71.905418    43.605724    -9.407010    5.341322    -4.579491    5.599939    7.269866    -0.213576    -7.420095    2.016170    3.798079    -1.867514    2.740851    -0.789506    -2.840218    1.124698    -13.484546    -3.529952    6.754059    8.131635    -9.573579    2.868570    6.448846    3.799407    -3.058954    -1.292192    2.931383    2.247067    
6.737895    82.476067    -3.291672    4.576493    4.084970    -24.382353    -3.669982    -10.428647    -4.472437    3.554082    4.650432    -4.281766    1.552581    27.353825    -3.419718    0.097745    -31.006777    -3.346501    6.735646    4.492437    11.225060    -86.095108    44.424839    -2.130823    4.707423    -18.230587    -32.258484    -42.913731    -14.593870    -6.174666    -6.623600    5.617440    6.575104    72.262604    52.068180    4.080112    -20.571959    -26.617722    72.238556    44.590923    -9.902385    5.878047    -4.548581    5.370252    7.498085    -0.332202    -7.525932    1.848616    3.726516    -1.765697    2.726130    -0.761831    -2.825755    1.085174    -13.490673    -3.870364    6.702681    8.109648    -9.492538    2.885522    6.438144    3.859102    -3.042643    -1.300598    2.896571    2.262482    
6.682243    82.478157    -3.290506    4.652318    4.063015    -24.363693    -3.894341    -10.370583    -4.328854    3.683678    4.537789    -4.121305    1.735123    27.404472    -3.561865    -0.010427    -30.851767    -3.517319    6.930658    4.531605    11.262710    -86.796509    43.580070    -1.683462    4.824388    -18.133928    -31.654484    -42.703926    -14.651238    -5.781151    -6.541990    5.441161    6.715680    71.150803    52.270321    4.625012    -20.805248    -27.106731    73.484375    45.151382    -9.897004    5.832212    -4.586923    5.477752    7.502532    -0.388669    -7.739408    1.951830    3.709672    -1.670185    2.586231    -0.750490    -2.832421    1.069066    -13.511849    -3.874946    6.561913    8.091554    -9.431546    3.014279    6.395633    3.846781    -3.038336    -1.285037    2.877005    2.235863    
6.667874    82.475441    -3.306843    4.719437    4.096944    -24.122225    -4.005786    -10.262290    -4.276525    3.671089    4.392855    -4.057513    1.935627    27.293543    -3.718647    -0.038460    -30.616341    -3.671866    7.156979    4.501091    11.366096    -87.413322    43.070602    -1.244854    4.945871    -18.187281    -31.116688    -42.644619    -14.825198    -5.449798    -6.445233    5.139114    6.827106    70.181709    52.560596    5.003808    -21.500656    -27.798248    74.430145    46.260342    -9.641072    6.152621    -4.643332    5.452993    7.297137    -0.259465    -7.869328    1.815815    3.599360    -1.540506    2.701413    -0.733273    -2.833810    1.044550    -13.535172    -3.864798    6.374992    8.038091    -9.414225    3.092493    6.338431    3.819957    -3.213264    -1.293571    2.858768    2.251127    
